<svg width="125" height="42" viewBox="0 0 125 42" fill="none" xmlns="http://www.w3.org/2000/svg">
<g filter="url(#filter0_d_23_170)">
<path d="M0.105469 0.277344H4.83984C4.90234 0.285156 4.93359 0.316406 4.93359 0.371094V11.9727H10.0195C10.0898 11.9805 10.125 12.0156 10.125 12.0781V16.8008C10.125 16.8711 10.0898 16.9062 10.0195 16.9062H0.105469C0.0351562 16.9062 0 16.8711 0 16.8008V0.371094C0.015625 0.308594 0.0507813 0.277344 0.105469 0.277344ZM11.8706 0.277344H23.5777C23.6402 0.285156 23.6714 0.316406 23.6714 0.371094V5.10547C23.6714 5.17578 23.6402 5.21094 23.5777 5.21094H16.7105V6.125H20.5191C20.5894 6.13281 20.6245 6.16797 20.6245 6.23047V10.9531C20.6245 11.0234 20.5894 11.0586 20.5191 11.0586H16.7105V11.9258H23.5777C23.6402 11.9336 23.6714 11.9648 23.6714 12.0195V16.8008C23.6714 16.8711 23.6402 16.9062 23.5777 16.9062H11.8706C11.8081 16.9062 11.7769 16.8711 11.7769 16.8008V0.371094C11.7847 0.308594 11.8159 0.277344 11.8706 0.277344ZM28.6866 0.21875H38.5069C38.5772 0.234375 38.6123 0.269531 38.6123 0.324219V5.10547C38.6123 5.17578 38.5772 5.21094 38.5069 5.21094H30.3155V11.9727H33.5733V8.05859C33.5889 7.98828 33.6241 7.95312 33.6787 7.95312H38.5069C38.5772 7.96094 38.6123 7.99609 38.6123 8.05859V16.7539C38.5811 16.8555 38.4795 16.9062 38.3077 16.9062H28.6866C27.3897 15.6484 26.2725 14.5312 25.335 13.5547V3.58203C26.5928 2.27734 27.71 1.15625 28.6866 0.21875ZM40.3697 0.277344H52.0767C52.1392 0.285156 52.1705 0.316406 52.1705 0.371094V5.10547C52.1705 5.17578 52.1392 5.21094 52.0767 5.21094H45.2095V6.125H49.0181C49.0884 6.13281 49.1236 6.16797 49.1236 6.23047V10.9531C49.1236 11.0234 49.0884 11.0586 49.0181 11.0586H45.2095V11.9258H52.0767C52.1392 11.9336 52.1705 11.9648 52.1705 12.0195V16.8008C52.1705 16.8711 52.1392 16.9062 52.0767 16.9062H40.3697C40.3072 16.9062 40.2759 16.8711 40.2759 16.8008V0.371094C40.2837 0.308594 40.315 0.277344 40.3697 0.277344ZM53.9395 0.277344H58.7208C58.838 0.371094 59.9395 2.40625 62.0255 6.38281H62.0723V0.371094C62.0802 0.308594 62.1153 0.277344 62.1778 0.277344H66.9005C66.9708 0.285156 67.0059 0.316406 67.0059 0.371094V16.8008C67.0059 16.8711 66.9708 16.9062 66.9005 16.9062H62.1192C61.6427 16.1562 60.5606 14.1406 58.8731 10.8594H58.8145V16.8008C58.8145 16.8711 58.7833 16.9062 58.7208 16.9062H53.9395C53.8692 16.9062 53.8341 16.8711 53.8341 16.8008V0.371094C53.8419 0.308594 53.877 0.277344 53.9395 0.277344ZM68.7633 0.277344H78.525C79.8297 1.53516 80.9508 2.65234 81.8883 3.62891V13.6484C80.6227 14.9531 79.5016 16.0742 78.525 17.0117H68.857C68.8102 17.0117 68.7438 16.9414 68.6578 16.8008V0.371094C68.6656 0.308594 68.7008 0.277344 68.7633 0.277344ZM73.5914 5.25781V12.0195H76.9547V5.25781H73.5914ZM94.6027 0.277344C94.7198 0.277344 94.9542 2.02344 95.3058 5.51562C95.3448 5.57812 95.8214 9.35938 96.7355 16.8594L96.63 16.9062H91.8487C91.7237 16.9062 91.5206 15.4648 91.2394 12.582C91.2081 12.582 91.1769 12.4141 91.1456 12.0781H88.3917C88.0558 15.0547 87.8527 16.6641 87.7823 16.9062H82.9542C82.8839 16.9062 82.8487 16.8711 82.8487 16.8008C84.0675 6.64453 84.7472 1.13672 84.8878 0.277344H94.6027ZM89.2589 5.21094L89.0011 7.14453H90.5245L90.3253 5.21094H89.2589ZM98.5045 0.21875H108.571C109.462 1.07031 110.462 2.07031 111.571 3.21875V8.97266L110.505 10.0859L111.524 11.1641V16.8008C111.524 16.8711 111.489 16.9062 111.419 16.9062H106.696C106.626 16.9062 106.59 16.8711 106.59 16.8008V12.0195H103.38V16.8008C103.38 16.8711 103.348 16.9062 103.286 16.9062H98.5045C98.4342 16.9062 98.3991 16.8711 98.3991 16.8008V0.324219C98.4069 0.253906 98.442 0.21875 98.5045 0.21875ZM103.38 5.21094V7.03906H106.637V5.21094H103.38ZM111.36 0.277344H116.645C116.731 0.277344 117.137 1.41016 117.863 3.67578H117.91C118.504 1.55859 118.863 0.425781 118.988 0.277344H124.379C124.379 0.417969 123.039 3.46875 120.36 9.42969C120.32 10.6016 120.301 11.4492 120.301 11.9727V16.8594C120.301 16.9219 120.27 16.9531 120.207 16.9531H115.426C115.356 16.9531 115.32 16.9219 115.32 16.8594V9.58203C115.32 9.50391 113.965 6.41797 111.254 0.324219L111.36 0.277344ZM3.35156 22.2188H13.1719C13.2422 22.2344 13.2773 22.2695 13.2773 22.3242V27.1055C13.2773 27.1758 13.2422 27.2109 13.1719 27.2109H4.98047V33.9727H8.23828V30.0586C8.25391 29.9883 8.28906 29.9531 8.34375 29.9531H13.1719C13.2422 29.9609 13.2773 29.9961 13.2773 30.0586V38.7539C13.2461 38.8555 13.1445 38.9062 12.9727 38.9062H3.35156C2.05469 37.6484 0.9375 36.5312 0 35.5547V25.582C1.25781 24.2773 2.375 23.1562 3.35156 22.2188ZM26.6948 22.2773C26.812 22.2773 27.0464 24.0234 27.398 27.5156C27.437 27.5781 27.9136 31.3594 28.8277 38.8594L28.7222 38.9062H23.9409C23.8159 38.9062 23.6128 37.4648 23.3316 34.582C23.3003 34.582 23.2691 34.4141 23.2378 34.0781H20.4839C20.148 37.0547 19.9448 38.6641 19.8745 38.9062H15.0464C14.9761 38.9062 14.9409 38.8711 14.9409 38.8008C16.1597 28.6445 16.8394 23.1367 16.98 22.2773H26.6948ZM21.3511 27.2109L21.0933 29.1445H22.6167L22.4175 27.2109H21.3511ZM30.5967 22.2773H35.378C35.5889 22.4961 36.1475 23.5117 37.0537 25.3242L38.7881 28.4297C40.2725 25.625 41.3741 23.5742 42.0928 22.2773H46.9209C46.9912 22.2852 47.0264 22.3164 47.0264 22.3711V38.8008C47.0264 38.8711 46.9912 38.9062 46.9209 38.9062H42.1397C42.0772 38.9062 42.0459 38.8711 42.0459 38.8008V32.8594H41.9873C41.0811 34.6719 40.5381 35.6523 40.3584 35.8008H37.1592C36.9092 35.5117 36.3662 34.5312 35.5303 32.8594H35.4834V38.8008C35.4834 38.8711 35.4483 38.9062 35.378 38.9062H30.5967C30.5264 38.9062 30.4912 38.8711 30.4912 38.8008V22.3711C30.5069 22.3086 30.542 22.2773 30.5967 22.2773ZM48.7837 22.2773H60.4908C60.5533 22.2852 60.5845 22.3164 60.5845 22.3711V27.1055C60.5845 27.1758 60.5533 27.2109 60.4908 27.2109H53.6236V28.125H57.4322C57.5025 28.1328 57.5377 28.168 57.5377 28.2305V32.9531C57.5377 33.0234 57.5025 33.0586 57.4322 33.0586H53.6236V33.9258H60.4908C60.5533 33.9336 60.5845 33.9648 60.5845 34.0195V38.8008C60.5845 38.8711 60.5533 38.9062 60.4908 38.9062H48.7837C48.7212 38.9062 48.69 38.8711 48.69 38.8008V22.3711C48.6978 22.3086 48.7291 22.2773 48.7837 22.2773ZM65.0958 22.3242H75.3145C75.3848 22.332 75.42 22.3672 75.42 22.4297V27.1523C75.42 27.2227 75.3848 27.2578 75.3145 27.2578H67.2286V28.125H72.5723C73.0802 28.5859 74.0294 29.5352 75.42 30.9727V36.0586C74.9591 36.5664 74.0098 37.5156 72.5723 38.9062H62.3536C62.2833 38.9062 62.2481 38.8711 62.2481 38.8008V34.0781C62.2559 34.0078 62.2911 33.9727 62.3536 33.9727H70.4864V33.1055H65.0958C64.588 32.6445 63.6387 31.6953 62.2481 30.2578V25.1719C62.7091 24.6641 63.6583 23.7148 65.0958 22.3242Z" fill="#1565C0"/>
</g>
<defs>
<filter id="filter0_d_23_170" x="0" y="0.21875" width="124.379" height="41.6875" filterUnits="userSpaceOnUse" color-interpolation-filters="sRGB">
<feFlood flood-opacity="0" result="BackgroundImageFix"/>
<feColorMatrix in="SourceAlpha" type="matrix" values="0 0 0 0 0 0 0 0 0 0 0 0 0 0 0 0 0 0 127 0" result="hardAlpha"/>
<feOffset dy="3"/>
<feComposite in2="hardAlpha" operator="out"/>
<feColorMatrix type="matrix" values="0 0 0 0 0.357692 0 0 0 0 0.357692 0 0 0 0 0.357692 0 0 0 1 0"/>
<feBlend mode="normal" in2="BackgroundImageFix" result="effect1_dropShadow_23_170"/>
<feBlend mode="normal" in="SourceGraphic" in2="effect1_dropShadow_23_170" result="shape"/>
</filter>
</defs>
</svg>
